# xmcd
# 
# Track frame offsets:
#     150
#     3663
#     54133
#     90679
#     129503
#     144324
#     190029
#     218756
# 
# Disc length: 3568
# 
# Revision: 0
# Processed by: cddbd v1.5.2PL0 Copyright (c) Steve Scherf et al.
# Submitted via: fre:ac v1.0.17
# 
DISCID=630dee08
DTITLE=Cathedral - Anniversary - Back to the Forest
DYEAR=2010
DGENRE=Heavy Metal
TTITLE0=Picture of Beauty and Innocence
TTITLE1=Comiserating the Celebration
TTITLE2=Ebony Tears
TTITLE3=Serpent Eve
TTITLE4=Soul Sacrifice
TTITLE5=A Funeral Request
TTITLE6=Equilibrium
TTITLE7=Reaching Happiness, Touching Pain
EXTD=
EXTT0=
EXTT1=
EXTT2=
EXTT3=
EXTT4=
EXTT5=
EXTT6=
EXTT7=
PLAYORDER=
